<?xml version="1.0" encoding="UTF-8"?>
<svg id="Layer_2" data-name="Layer 2" xmlns="http://www.w3.org/2000/svg" viewBox="0 0 233.94 233.94">
  <defs>
    <style>
      .cls-1 {
        opacity: .8;
      }

      .cls-2, .cls-3 {
        stroke-width: 0px;
      }

      .cls-3 {
        fill: #e4baff;
      }
    </style>
  </defs>
  <g id="Capa_1" data-name="Capa 1">
    <g>
      <circle class="cls-3" cx="116.97" cy="116.97" r="116.94"/>
      <g>
        <g class="cls-1">
          <path class="cls-2" d="M92.93,117.93c2.93-6.29-.51-12.84-6.44-15.6-5.96-2.78-12.94-.43-16.14,5.19-6.06-2.24-12.92.44-15.7,6.4-2.76,5.93-1.29,13.11,5.1,16.09l21.76,10.27c.5.24,1.1.02,1.33-.49l10.09-21.86Z"/>
        </g>
        <g class="cls-1">
          <path class="cls-2" d="M169.08,89.81c2.93-6.29-.51-12.84-6.44-15.6-5.96-2.78-12.94-.43-16.14,5.19-6.06-2.24-12.92.44-15.7,6.4-2.76,5.93-1.29,13.11,5.1,16.09l21.76,10.27c.5.24,1.1.02,1.33-.49l10.09-21.86Z"/>
        </g>
        <g class="cls-1">
          <path class="cls-2" d="M130.35,154.12c-12.31,4.48-25.98-1.89-30.46-14.2l13.67-4.98c1.74,4.77,7.03,7.24,11.81,5.51s7.24-7.03,5.51-11.81l13.67-4.98c4.48,12.31-1.89,25.98-14.2,30.46Z"/>
        </g>
      </g>
      <g class="cls-1">
        <path class="cls-2" d="M152.1,213.5c-53.23,19.37-112.29-8.17-131.66-61.39S28.61,39.81,81.83,20.44c53.23-19.37,112.29,8.17,131.66,61.39s-8.17,112.29-61.39,131.66ZM86.81,34.11c-45.69,16.63-69.33,67.32-52.7,113.01,16.63,45.69,67.32,69.33,113.01,52.7,45.69-16.63,69.33-67.32,52.7-113.01-16.63-45.69-67.32-69.33-113.01-52.7Z"/>
      </g>
    </g>
  </g>
</svg>