<?xml version="1.0" encoding="UTF-8"?>
<svg id="Layer_2" data-name="Layer 2" xmlns="http://www.w3.org/2000/svg" viewBox="0 0 456.9 80.06">
  <defs>
    <style>
      .cls-1 {
        fill: #8d8bf2;
      }

      .cls-1, .cls-2 {
        stroke-width: 0px;
      }

      .cls-2 {
        fill: #fff;
      }
    </style>
  </defs>
  <g id="Capa_1" data-name="Capa 1">
    <g>
      <path class="cls-2" d="M415.18,78.53c-4.27,0-8.45-1.74-11.45-4.78l-21.75-21.95c-11.69-11.69-11.29-30.49.96-42.74C388.77,3.22,396.53,0,404.79,0c3.57,0,7.08.62,10.4,1.79C418.5.62,422.02,0,425.58,0c8.26,0,16.02,3.22,21.86,9.06,5.52,5.52,8.85,12.7,9.38,20.2.6,8.5-2.41,16.52-8.47,22.59l-21.74,21.91c-3.01,3.03-7.18,4.77-11.44,4.77Z"/>
      <g>
        <path class="cls-2" d="M58.61,79.59c-1.59,0-3.14-.23-4.59-.67-1.47.44-3.02.67-4.63.67h-11.23c-1.6,0-3.15-.23-4.62-.67-1.46.43-3,.67-4.6.67h-12.82C7.23,79.59,0,72.36,0,63.47V17.86C0,8.98,7.23,1.75,16.11,1.75h16.52c4.22,0,8.19,1.67,11.14,4.48,2.94-2.81,6.91-4.48,11.15-4.48h16.45c8.89,0,16.11,7.23,16.11,16.11v45.61c0,8.89-7.23,16.11-16.11,16.11h-12.76Z"/>
        <path class="cls-2" d="M113.73,79.59c-4.24,0-8.17-1.64-11.1-4.42-2.92,2.77-6.86,4.42-11.1,4.42h-13.4c-5.26,0-10.19-2.57-13.2-6.88-3.01-4.31-3.74-9.82-1.94-14.76l16.69-45.62c2.33-6.33,8.41-10.58,15.13-10.58h15.76c6.76,0,12.84,4.27,15.15,10.62l16.61,45.59c1.8,4.94,1.07,10.46-1.94,14.76-3.01,4.3-7.95,6.87-13.2,6.87h-13.47Z"/>
        <path class="cls-2" d="M138.88,79.59c-8.89,0-16.11-7.23-16.11-16.11v-20.17c-7.17-1.63-12.55-8.06-12.55-15.72v-9.72c0-8.89,7.23-16.11,16.11-16.11h38.05c8.89,0,16.11,7.23,16.11,16.11v9.72c0,7.71-5.44,14.17-12.68,15.75v20.14c0,8.89-7.23,16.11-16.11,16.11h-12.82Z"/>
        <path class="cls-2" d="M171,79.59c-8.89,0-16.11-7.23-16.11-16.11V17.86c0-8.89,7.23-16.11,16.11-16.11h12.82c8.89,0,16.11,7.23,16.11,16.11v20.4c8.1.84,14.43,7.71,14.43,16.03v9.18c0,8.89-7.23,16.11-16.11,16.11h-27.26Z"/>
        <path class="cls-2" d="M226.58,80.06c-7.09,0-13.74-1.72-19.76-5.11-6.07-3.42-10.96-8.21-14.51-14.23-3.58-6.05-5.39-12.87-5.39-20.25,0-7.38,1.82-14.2,5.4-20.26,3.56-6.04,8.47-10.83,14.57-14.23,6-3.34,12.63-5.04,19.69-5.04,7.08,0,13.71,1.7,19.69,5.05,6.08,3.41,10.97,8.21,14.51,14.27,3.53,6.05,5.33,12.85,5.33,20.2,0,7.36-1.79,14.15-5.33,20.2-3.53,6.05-8.42,10.86-14.51,14.29-6.01,3.39-12.64,5.1-19.69,5.1Z"/>
        <path class="cls-2" d="M268.35,79.59c-6.93,0-13.07-4.41-15.28-10.99l-15.33-45.6c-1.65-4.9-.83-10.34,2.19-14.54,3.02-4.2,7.91-6.71,13.09-6.71h13.62c4.05,0,7.79,1.47,10.65,3.99,2.87-2.5,6.61-3.99,10.58-3.99h13.62c5.17,0,10.07,2.51,13.09,6.71,3.02,4.2,3.84,9.64,2.19,14.54l-15.33,45.6c-2.2,6.57-8.34,10.98-15.28,10.98h-17.81Z"/>
        <rect class="cls-2" x="292.11" y="1.75" width="45.05" height="77.84" rx="16.11" ry="16.11"/>
        <path class="cls-2" d="M362.28,79.59c-3.17,0-6.19-.92-8.76-2.58-2.52,1.63-5.52,2.58-8.74,2.58h-12.82c-8.89,0-16.11-7.23-16.11-16.11V17.86c0-8.89,7.23-16.11,16.11-16.11h13.32c3.17,0,6.2.92,8.76,2.58,2.52-1.63,5.52-2.58,8.74-2.58h12.83c8.89,0,16.11,7.23,16.11,16.11v45.61c0,8.89-7.23,16.11-16.11,16.11h-13.32Z"/>
        <path class="cls-1" d="M72.44,17.86v45.61c0,.59-.48,1.07-1.07,1.07h-12.76c-.59,0-1.07-.48-1.07-1.07v-15.61c0-1.23-1.74-1.49-2.1-.32l-5.02,16.25c-.14.45-.56.76-1.03.76h-11.23c-.47,0-.89-.31-1.03-.76l-5.02-16.25c-.36-1.18-2.1-.92-2.1.32v15.61c0,.59-.48,1.07-1.07,1.07h-12.83c-.59,0-1.07-.48-1.07-1.07V17.86c0-.59.48-1.07,1.07-1.07h16.52c.45,0,.85.28,1.01.7l9.24,25.18c.35.94,1.68.94,2.02,0l9-25.16c.15-.43.56-.71,1.01-.71h16.45c.59,0,1.07.48,1.07,1.07Z"/>
        <path class="cls-1" d="M109.82,57.33h-14.36c-.46,0-.88.3-1.02.74l-1.88,5.74c-.14.44-.56.74-1.02.74h-13.4c-.75,0-1.27-.74-1.01-1.44l16.68-45.61c.15-.42.56-.71,1.01-.71h15.76c.45,0,.85.28,1.01.71l16.62,45.61c.26.7-.26,1.44-1.01,1.44h-13.47c-.46,0-.88-.3-1.02-.74l-1.88-5.74c-.14-.44-.56-.74-1.02-.74ZM106.5,44.66l-2.84-8.74c-.32-.99-1.72-.99-2.04,0l-2.84,8.74c-.23.69.29,1.41,1.02,1.41h5.68c.73,0,1.25-.71,1.02-1.41Z"/>
        <path class="cls-1" d="M165.46,17.86v9.72c0,.59-.48,1.07-1.07,1.07h-10.53c-.59,0-1.07.48-1.07,1.07v33.73c0,.59-.48,1.07-1.07,1.07h-12.83c-.59,0-1.07-.48-1.07-1.07V29.74c0-.59-.48-1.07-1.07-1.07h-10.4c-.59,0-1.07-.48-1.07-1.07v-9.72c0-.59.48-1.07,1.07-1.07h38.05c.59,0,1.07.48,1.07,1.07Z"/>
        <path class="cls-1" d="M185.98,53.21h12.29c.59,0,1.07.48,1.07,1.07v9.18c0,.59-.48,1.07-1.07,1.07h-27.26c-.59,0-1.07-.48-1.07-1.07V17.86c0-.59.48-1.07,1.07-1.07h12.83c.59,0,1.07.48,1.07,1.07v34.27c0,.59.48,1.07,1.07,1.07Z"/>
        <path class="cls-1" d="M214.2,61.85c-3.75-2.11-6.73-5.04-8.94-8.77-2.2-3.73-3.31-7.94-3.31-12.61,0-4.68,1.1-8.88,3.31-12.61,2.2-3.73,5.18-6.64,8.94-8.74,3.75-2.09,7.88-3.14,12.38-3.14,4.5,0,8.61,1.04,12.34,3.14,3.73,2.09,6.69,5,8.87,8.74,2.18,3.73,3.27,7.94,3.27,12.61,0,4.68-1.09,8.88-3.27,12.61-2.18,3.73-5.15,6.66-8.9,8.77-3.75,2.11-7.86,3.17-12.31,3.17-4.5,0-8.62-1.06-12.38-3.17ZM233.46,48.19c1.62-1.91,2.43-4.49,2.43-7.72,0-3.28-.81-5.88-2.43-7.79-1.62-1.91-3.91-2.87-6.88-2.87-3.01,0-5.33.96-6.95,2.87-1.62,1.91-2.43,4.51-2.43,7.79,0,3.24.81,5.81,2.43,7.72,1.62,1.91,3.93,2.87,6.95,2.87,2.97,0,5.26-.95,6.88-2.87Z"/>
        <path class="cls-1" d="M302.52,18.21l-15.33,45.61c-.15.44-.56.73-1.02.73h-17.81c-.46,0-.87-.29-1.02-.73l-15.33-45.61c-.23-.7.28-1.42,1.02-1.42h13.62c.47,0,.89.31,1.03.77l8.59,28.64c.31,1.02,1.75,1.02,2.06,0l8.53-28.63c.14-.46.55-.77,1.03-.77h13.62c.73,0,1.25.72,1.02,1.42Z"/>
        <path class="cls-1" d="M322.12,17.86v45.61c0,.59-.48,1.07-1.07,1.07h-12.82c-.59,0-1.07-.48-1.07-1.07V17.86c0-.59.48-1.07,1.07-1.07h12.82c.59,0,1.07.48,1.07,1.07Z"/>
        <path class="cls-1" d="M375.6,64.54h-13.32c-.36,0-.7-.18-.9-.48l-13.56-20.54c-.59-.89-1.97-.47-1.97.59v19.36c0,.59-.48,1.07-1.07,1.07h-12.82c-.59,0-1.07-.48-1.07-1.07V17.86c0-.59.48-1.07,1.07-1.07h13.32c.36,0,.7.18.9.49l13.56,20.88c.58.9,1.98.48,1.98-.58v-19.71c0-.59.48-1.07,1.07-1.07h12.83c.59,0,1.07.48,1.07,1.07v45.61c0,.59-.48,1.07-1.07,1.07Z"/>
      </g>
      <path class="cls-1" d="M437.72,41.21c6.26-6.26,4.99-15.62-.91-21.52-5.94-5.94-15.33-6.16-21.62-.83-6.29-5.34-15.69-5.11-21.62.83-5.9,5.9-7.27,15.17-.91,21.52l21.76,21.96c.42.42,1.11.42,1.53,0l21.78-21.96Z"/>
    </g>
  </g>
</svg>