<?xml version="1.0" encoding="UTF-8"?>
<svg id="Layer_2" data-name="Layer 2" xmlns="http://www.w3.org/2000/svg" viewBox="0 0 205.46 205.46">
  <defs>
    <style>
      .cls-1 {
        fill: #fff;
        stroke-width: 0px;
      }
    </style>
  </defs>
  <g id="Capa_1" data-name="Capa 1">
    <g>
      <g>
        <path class="cls-1" d="M78.7,103.7c2.93-6.29-.51-12.84-6.44-15.6-5.96-2.78-12.94-.43-16.14,5.19-6.06-2.24-12.92.44-15.7,6.4-2.76,5.93-1.29,13.11,5.1,16.09l21.76,10.27c.5.24,1.1.02,1.33-.49l10.09-21.86Z"/>
        <path class="cls-1" d="M154.84,75.57c2.93-6.29-.51-12.84-6.44-15.6-5.96-2.78-12.94-.43-16.14,5.19-6.06-2.24-12.92.44-15.7,6.4-2.76,5.93-1.29,13.11,5.1,16.09l21.76,10.27c.5.24,1.1.02,1.33-.49l10.09-21.86Z"/>
        <path class="cls-1" d="M116.11,139.88c-12.31,4.48-25.98-1.89-30.46-14.2l13.67-4.98c1.74,4.77,7.03,7.24,11.81,5.51s7.24-7.03,5.51-11.81l13.67-4.98c4.48,12.31-1.89,25.98-14.2,30.46Z"/>
      </g>
      <path class="cls-1" d="M137.86,199.26c-53.23,19.37-112.29-8.17-131.66-61.39S14.37,25.57,67.6,6.2c53.23-19.37,112.29,8.17,131.66,61.39s-8.17,112.29-61.39,131.66ZM72.57,19.88C26.89,36.5,3.25,87.2,19.88,132.89c16.63,45.69,67.32,69.33,113.01,52.7,45.69-16.63,69.33-67.32,52.7-113.01C168.96,26.89,118.26,3.25,72.57,19.88Z"/>
    </g>
  </g>
</svg>